<?xml version="1.0" standalone="no"?>
<!DOCTYPE svg PUBLIC "-//W3C//DTD SVG 20010904//EN"
 "http://www.w3.org/TR/2001/REC-SVG-20010904/DTD/svg10.dtd">
<svg version="1.0" xmlns="http://www.w3.org/2000/svg"
 width="858.000000pt" height="798.000000pt" viewBox="0 0 858.000000 798.000000"
 preserveAspectRatio="xMidYMid meet">
<metadata>
Created by potrace 1.10, written by Peter Selinger 2001-2011
</metadata>
<g transform="translate(0.000000,798.000000) scale(0.100000,-0.100000)"
fill="#000000" stroke="none">
<path d="M280 7733 c-62 -26 -109 -64 -142 -116 l-33 -52 0 -2265 0 -2265 22
-41 c24 -44 74 -93 126 -121 30 -17 94 -18 895 -23 752 -4 864 -7 872 -20 13
-21 12 -48 -4 -106 -7 -27 -21 -103 -30 -169 -30 -210 -44 -268 -67 -284 -27
-19 -69 -85 -69 -109 0 -11 11 -40 25 -66 25 -48 25 -48 10 -121 -8 -41 -19
-84 -24 -97 -5 -13 -17 -50 -26 -83 -51 -172 -67 -220 -91 -268 -8 -16 -14
-35 -14 -42 0 -14 -11 -42 -55 -140 -13 -27 -33 -75 -46 -105 -12 -30 -27 -62
-34 -70 -6 -8 -28 -49 -49 -90 -74 -146 -138 -247 -300 -473 -82 -115 -88
-131 -89 -229 -1 -69 2 -91 16 -106 9 -10 17 -23 17 -29 0 -23 61 -92 111
-124 75 -49 154 -67 222 -49 63 15 114 40 155 75 49 41 252 320 309 425 10 19
30 53 44 75 13 22 35 60 47 85 13 25 27 52 32 60 16 25 117 243 125 268 4 13
20 49 35 80 15 32 37 86 48 122 11 36 30 88 42 115 12 28 32 91 45 140 13 50
27 101 33 115 14 35 36 121 57 215 9 44 23 105 30 135 7 30 20 93 29 140 9 46
21 89 26 94 11 11 110 34 210 47 41 5 83 14 92 19 30 17 48 11 59 -17 32 -85
35 -907 4 -1151 -37 -290 -46 -336 -92 -497 -39 -139 -46 -162 -59 -193 -21
-50 -17 -124 11 -194 39 -98 108 -162 206 -191 69 -21 87 -21 163 -1 127 35
203 125 252 299 9 33 23 80 30 105 18 64 41 170 59 280 8 52 22 136 30 185 44
269 59 874 30 1238 -7 99 -11 185 -9 192 8 20 40 23 376 35 572 21 1308 -23
1753 -104 44 -8 105 -19 135 -24 30 -6 68 -15 83 -21 16 -6 43 -11 60 -11 18
-1 43 -7 57 -15 14 -8 43 -15 65 -15 22 0 49 -7 59 -15 11 -8 30 -15 43 -15
12 0 37 -6 55 -14 18 -8 52 -21 76 -30 81 -31 127 -49 159 -62 40 -18 46 -18
88 5 52 27 75 62 75 111 0 53 -12 75 -60 105 -70 44 -296 119 -515 170 -60 14
-138 32 -172 40 -34 8 -80 15 -103 15 -23 0 -50 5 -61 11 -11 6 -55 14 -97 19
-42 5 -140 18 -217 29 -77 12 -167 21 -200 21 -33 1 -80 5 -105 11 -25 6 -169
15 -320 20 -151 6 -345 13 -430 17 -85 4 -222 3 -305 -2 -82 -5 -235 -10 -340
-10 l-190 -1 -6 71 c-4 39 -10 89 -14 111 -4 29 -3 43 7 49 7 5 1066 11 2353
14 l2340 5 42 22 c55 30 124 111 140 165 10 35 13 477 13 2256 0 2506 8 2271
-84 2366 -37 37 -66 57 -103 69 -48 16 -318 17 -3980 16 -3460 -1 -3932 -2
-3963 -16z m7878 -2423 c1 -1196 0 -2185 -3 -2197 l-5 -23 -2329 0 c-1851 0
-2330 3 -2338 13 -12 15 -44 203 -76 442 -3 17 -16 86 -30 155 -13 69 -32 170
-42 225 -9 55 -22 120 -30 145 -14 50 -36 155 -61 300 -9 52 -20 105 -25 117
-16 42 -49 195 -49 227 0 26 6 35 33 49 219 112 445 332 557 542 18 33 41 76
51 95 20 37 65 155 79 205 4 17 12 41 17 55 16 41 41 195 59 356 15 140 15
163 0 320 -19 189 -42 346 -61 414 -7 25 -20 72 -28 105 -57 221 -82 272 -152
312 -101 57 -251 2 -286 -104 -13 -41 -6 -151 11 -184 14 -25 33 -95 61 -219
11 -52 28 -126 37 -165 24 -103 24 -525 0 -610 -9 -33 -24 -91 -33 -130 -20
-80 -88 -231 -143 -314 -47 -71 -160 -191 -232 -246 -69 -52 -207 -126 -280
-149 -30 -10 -68 -22 -85 -28 -120 -40 -201 -49 -455 -52 -275 -4 -297 -7
-397 -63 -233 -129 -386 -396 -476 -833 -42 -199 -47 -238 -47 -335 0 -106 1
-109 53 -225 27 -62 126 -195 222 -300 29 -33 75 -100 75 -111 0 -15 -1384
-11 -1398 3 -9 9 -12 508 -12 2184 0 1195 3 2179 6 2188 6 15 356 16 3908 14
l3901 -3 3 -2175z m-6053 -891 c6 -4 11 -208 13 -563 3 -465 1 -556 -11 -556
-7 0 -21 15 -30 34 -9 19 -23 43 -31 53 -8 10 -61 74 -119 143 -57 69 -109
139 -116 157 -10 25 -10 54 -1 145 7 62 19 131 26 153 8 22 14 49 14 60 0 10
6 37 14 60 7 22 21 67 31 100 21 75 90 222 107 228 17 6 91 -4 103 -14z m778
-1801 c25 -13 39 -55 27 -79 -8 -14 -21 -19 -50 -19 -22 0 -59 -6 -82 -14 -24
-8 -70 -16 -103 -18 -56 -3 -60 -1 -63 20 -2 12 2 46 8 76 l11 54 117 -5 c64
-3 125 -10 135 -15z"/>
<path d="M3158 7153 c-44 -54 -52 -78 -53 -159 0 -72 3 -85 29 -124 30 -46 73
-90 87 -90 18 0 8 37 -15 59 -13 13 -34 46 -46 74 -27 61 -24 110 11 183 32
66 24 100 -13 57z"/>
<path d="M3250 7081 c-30 -61 -26 -116 13 -173 30 -46 58 -60 72 -38 4 6 -10
29 -30 53 -38 44 -40 57 -20 153 10 48 -11 51 -35 5z"/>
<path d="M2275 6230 c-219 -43 -415 -235 -460 -452 -50 -235 29 -447 219 -593
97 -74 280 -131 392 -121 79 6 182 30 198 46 5 5 16 10 23 10 18 0 109 59 149
96 82 78 140 177 170 292 18 67 17 210 0 283 -51 211 -254 405 -461 439 -61
10 -176 10 -230 0z"/>
</g>
</svg>
